<?xml version="1.0" encoding="UTF-8" standalone="no"?>
<!-- Created with Inkscape (http://www.inkscape.org/) -->

<svg
   version="1.1"
   id="svg1"
   width="57.799019"
   height="70.195923"
   viewBox="0 0 57.79902 70.195921"
   xmlns="http://www.w3.org/2000/svg"
   xmlns:svg="http://www.w3.org/2000/svg">
  <defs
     id="defs1" />
  <g
     id="g1"
     transform="translate(-33.396163,-12.868518)">
    <path
       style="fill:#ffffff;stroke:none"
       d="m 67.691711,82.970912 c 6.245241,-3.244472 7.28483,-4.100488 10.66526,-8.034888 2.089656,-2.432099 4.21921,-4.794308 5.46118,-7.79911 0.82929,-2.006351 1.34026,-4.178807 1.67234,-6.319969 0.16801,-1.083323 0.13092,-2.322822 0.47447,-3.361686 2.41371,-7.298805 5.23022,-14.076353 5.23022,-21.91819 0,-3.541547 -0.45525,-7.20613 -2.49035,-10.219524 -1.10271,-1.632806 -2.76321,-2.929197 -4.63642,-3.540349 -0.8233,-0.268607 -2.23554,-0.175832 -2.90734,-0.70918 -1.00045,-0.794272 -1.62944,-2.235439 -2.60583,-3.133623 -1.91113,-1.758064 -4.50916,-2.785529 -6.9923,-3.424044 -4.82464,-1.240615 -10.07766,-1.893 -15.06035,-1.551776 -3.15076,0.215769 -6.33985,0.833183 -9.27826,2.00498 -12.80673,5.107177 -15.8482,21.324445 -12.6555,33.482389 0.5046,1.92152 1.13085,3.891914 2.07419,5.647631 0.61462,1.143926 1.67668,2.291544 2.10603,3.496153 0.36935,1.036288 0.28222,2.399551 0.44376,3.496153 0.27045,1.835886 0.74666,3.647873 1.4172,5.378697 1.23183,3.179666 3.508306,5.655012 5.68903,8.202513 4.104288,4.794591 4.944483,5.728452 12.178392,8.397357 M 47.768121,42.051757 c 0.75588,-0.199518 1.81892,0.320165 2.54897,0.513281 1.72478,0.456249 3.48479,0.820938 5.24423,1.115996 4.70538,0.789085 9.54782,0.840692 14.25354,0.04762 1.68715,-0.284339 3.35285,-0.703934 4.9753,-1.244127 0.56596,-0.188438 1.43405,-0.596953 1.97426,-0.142978 0.54745,0.460065 0.28054,1.574345 0.32372,2.204809 0.11904,1.738318 0.40105,3.440902 0.91378,5.109762 0.45622,1.484961 1.08984,2.979335 1.90671,4.302958 0.53086,0.860168 1.43514,1.742315 1.77402,2.689348 0.24742,0.69146 -0.0629,1.707353 -0.14827,2.420414 -0.12276,1.025913 -0.12381,2.591026 -0.68489,3.482143 -0.34154,0.542442 -1.08792,0.874548 -1.62191,1.196821 -1.54618,0.933155 -3.24541,1.756735 -4.97529,2.285741 -4.35275,1.3311 -6.80285,-2.248193 -10.89186,-2.638923 -1.45011,-0.138563 -3.08946,-0.02111 -4.43743,0.560489 -1.65919,0.715876 -3.05705,1.950188 -4.84083,2.407134 -2.50678,0.642159 -5.53077,-1.027554 -7.66464,-2.154179 -0.77679,-0.410124 -1.74294,-0.864436 -2.37964,-1.476441 -0.74289,-0.714079 -0.73066,-2.426709 -0.86511,-3.39385 -0.0993,-0.714448 -0.39841,-1.863815 -0.16881,-2.554881 0.40363,-1.214877 1.65969,-2.303969 2.23241,-3.496153 0.8721,-1.815409 1.37604,-3.794421 1.66144,-5.782099 0.19266,-1.341843 0.18502,-2.681667 0.19215,-4.034023 0.003,-0.570395 0.009,-1.242371 0.67815,-1.41886 m 5.77618,5.913867 c -1.00057,0.143282 -1.98108,0.407719 -2.82381,0.987864 -5.41961,3.730913 -1.97388,12.12184 4.43742,11.286646 7.755,-1.010237 6.09615,-13.37854 -1.61361,-12.27451 m 16.40503,0 c -6.3613,0.912965 -7.547,10.047509 -1.21021,12.07862 0.92086,0.295157 2.00165,0.321683 2.95829,0.19589 7.75349,-1.019544 5.95523,-13.380083 -1.74808,-12.27451 M 59.864271,71.75495 c 1.2903,-0.258783 4.51318,-0.47062 5.64555,0.224008 1.4894,0.913639 1.14157,3.228277 -0.53579,3.668489 -1.32787,0.348496 -4.61631,0.499185 -5.77629,-0.291759 -1.38209,-0.942396 -1.01823,-3.262846 0.66653,-3.600738"
       id="path1-3" />
  </g>
</svg>
